<svg width="25" height="25" viewBox="0 0 25 25" fill="none" xmlns="http://www.w3.org/2000/svg">
<path d="M3.25 3.5H5.25L5.65 5.5M5.65 5.5H21.25L17.25 13.5H7.25M5.65 5.5L7.25 13.5M7.25 13.5L4.957 15.793C4.327 16.423 4.773 17.5 5.664 17.5H17.25M17.25 17.5C16.7196 17.5 16.2109 17.7107 15.8358 18.0858C15.4607 18.4609 15.25 18.9696 15.25 19.5C15.25 20.0304 15.4607 20.5391 15.8358 20.9142C16.2109 21.2893 16.7196 21.5 17.25 21.5C17.7804 21.5 18.2891 21.2893 18.6642 20.9142C19.0393 20.5391 19.25 20.0304 19.25 19.5C19.25 18.9696 19.0393 18.4609 18.6642 18.0858C18.2891 17.7107 17.7804 17.5 17.25 17.5ZM9.25 19.5C9.25 20.0304 9.03929 20.5391 8.66421 20.9142C8.28914 21.2893 7.78043 21.5 7.25 21.5C6.71957 21.5 6.21086 21.2893 5.83579 20.9142C5.46071 20.5391 5.25 20.0304 5.25 19.5C5.25 18.9696 5.46071 18.4609 5.83579 18.0858C6.21086 17.7107 6.71957 17.5 7.25 17.5C7.78043 17.5 8.28914 17.7107 8.66421 18.0858C9.03929 18.4609 9.25 18.9696 9.25 19.5Z" stroke="#767676" stroke-width="2" stroke-linecap="round" stroke-linejoin="round"/>
</svg>
