<svg width="25" height="25" viewBox="0 0 25 25" fill="none" xmlns="http://www.w3.org/2000/svg">
<path d="M5.06804 6.81804C4.65017 7.2359 4.3187 7.73198 4.09255 8.27795C3.8664 8.82392 3.75 9.40909 3.75 10C3.75 10.591 3.8664 11.1762 4.09255 11.7221C4.3187 12.2681 4.65017 12.7642 5.06804 13.182L12.75 20.864L20.432 13.182C21.276 12.3381 21.7501 11.1935 21.7501 10C21.7501 8.80656 21.276 7.66196 20.432 6.81804C19.5881 5.97412 18.4435 5.50001 17.25 5.50001C16.0566 5.50001 14.912 5.97412 14.068 6.81804L12.75 8.13604L11.432 6.81804C11.0142 6.40017 10.5181 6.0687 9.97213 5.84255C9.42616 5.6164 8.84099 5.5 8.25004 5.5C7.65909 5.5 7.07392 5.6164 6.52795 5.84255C5.98198 6.0687 5.4859 6.40017 5.06804 6.81804Z" stroke="#767676" stroke-width="2" stroke-linecap="round" stroke-linejoin="round"/>
</svg>
