<svg width="25" height="25" viewBox="0 0 25 25" fill="none" xmlns="http://www.w3.org/2000/svg">
<path d="M13.5977 3.25173C13.3727 3.02677 13.0675 2.90039 12.7493 2.90039C12.4311 2.90039 12.1259 3.02677 11.9009 3.25173L3.50092 11.6517C3.28233 11.8781 3.16137 12.1812 3.16411 12.4958C3.16684 12.8105 3.29304 13.1114 3.51553 13.3339C3.73802 13.5564 4.039 13.6826 4.35363 13.6853C4.66827 13.6881 4.97139 13.5671 5.19772 13.3485L5.54932 12.9969V20.9001C5.54932 21.2184 5.67575 21.5236 5.90079 21.7487C6.12583 21.9737 6.43106 22.1001 6.74932 22.1001H9.14932C9.46758 22.1001 9.7728 21.9737 9.99784 21.7487C10.2229 21.5236 10.3493 21.2184 10.3493 20.9001V18.5001C10.3493 18.1819 10.4757 17.8766 10.7008 17.6516C10.9258 17.4266 11.2311 17.3001 11.5493 17.3001H13.9493C14.2676 17.3001 14.5728 17.4266 14.7978 17.6516C15.0229 17.8766 15.1493 18.1819 15.1493 18.5001V20.9001C15.1493 21.2184 15.2757 21.5236 15.5008 21.7487C15.7258 21.9737 16.0311 22.1001 16.3493 22.1001H18.7493C19.0676 22.1001 19.3728 21.9737 19.5978 21.7487C19.8229 21.5236 19.9493 21.2184 19.9493 20.9001V12.9969L20.3009 13.3485C20.5272 13.5671 20.8304 13.6881 21.145 13.6853C21.4596 13.6826 21.7606 13.5564 21.9831 13.3339C22.2056 13.1114 22.3318 12.8105 22.3345 12.4958C22.3373 12.1812 22.2163 11.8781 21.9977 11.6517L13.5977 3.25173Z" fill="#60781C"/>
</svg>
