<svg width="120" height="41" viewBox="0 0 120 41" fill="none" xmlns="http://www.w3.org/2000/svg">
<path d="M0.957031 15.2422C0.683594 14.3958 0.501302 13.6406 0.410156 12.9766C0.332031 12.3125 0.292969 11.4531 0.292969 10.3984C0.501302 10.2161 0.839844 10.0078 1.30859 9.77344C1.77734 9.52604 2.33724 9.3112 2.98828 9.12891C3.63932 8.94661 4.3099 8.85547 5 8.85547C6.57552 8.85547 7.6888 9.19401 8.33984 9.87109C9.00391 10.5482 9.33594 11.5638 9.33594 12.918C9.33594 13.6732 9.22526 14.6953 9.00391 15.9844C8.63932 18.0547 8.45703 19.1419 8.45703 19.2461C8.45703 19.3112 8.5026 19.3763 8.59375 19.4414C8.6849 19.4935 8.78255 19.5195 8.88672 19.5195C9.00391 19.5195 9.08203 19.474 9.12109 19.3828L9.31641 18.6016L9.74609 16.9414C10.3841 14.5326 11.3346 12.5859 12.5977 11.1016C13.8607 9.60417 15.4492 8.85547 17.3633 8.85547C18.7956 8.85547 19.9609 9.16797 20.8594 9.79297C21.7708 10.4049 22.4284 11.2188 22.832 12.2344C23.2357 13.237 23.4375 14.3438 23.4375 15.5547C23.4375 17.1953 23.2812 19.0378 22.9688 21.082C22.6562 23.1133 22.2396 25.0143 21.7188 26.7852C21.2109 28.5169 20.3646 29.8906 19.1797 30.9062C18.0078 31.9089 16.543 32.4102 14.7852 32.4102C14.1471 32.4102 13.3984 32.306 12.5391 32.0977C11.6927 31.9023 10.6185 31.5573 9.31641 31.0625L8.53516 34.7539L8.57422 34.793L12.3047 34.5391C12.5521 34.8906 12.7344 35.3138 12.8516 35.8086C12.9818 36.3164 13.0924 36.8958 13.1836 37.5469L13.2422 37.9375C13.2422 37.9896 12.9557 38.2305 12.3828 38.6602C11.8099 39.1029 11.0482 39.5065 10.0977 39.8711C9.14714 40.2487 8.05339 40.4375 6.81641 40.4375C4.01693 40.4375 2.61719 38.9466 2.61719 35.9648V34.6172C2.61719 30.6458 2.64323 27.1107 2.69531 24.0117C2.76042 20.8997 2.89062 18.0938 3.08594 15.5938L0.957031 15.2422ZM14.707 27.1953C15.1758 25.4375 15.4102 22.7747 15.4102 19.207C15.4102 18.5951 15.3776 18.1003 15.3125 17.7227C15.013 17.3451 14.5833 17.1562 14.0234 17.1562C13.8411 17.3125 13.2161 18.3411 12.1484 20.2422C11.0807 22.1302 10.293 23.582 9.78516 24.5977V25.5352C10.5013 26.0299 11.3281 26.4401 12.2656 26.7656C13.2031 27.0781 13.9193 27.2344 14.4141 27.2344C14.5312 27.2344 14.6289 27.2214 14.707 27.1953ZM25.7227 20.6523C25.7227 18.3997 26.1003 16.388 26.8555 14.6172C27.6107 12.8464 28.776 11.4466 30.3516 10.418C31.9401 9.3763 33.9193 8.85547 36.2891 8.85547C37.526 8.85547 38.763 9.00521 40 9.30469C41.237 9.59115 42.2852 10.0729 43.1445 10.75C43.9388 11.388 44.5117 12.2344 44.8633 13.2891C45.2279 14.3307 45.4102 15.4896 45.4102 16.7656C45.4102 17.612 45.3385 18.4779 45.1953 19.3633C45.0391 19.6237 44.7331 19.9688 44.2773 20.3984C43.8216 20.8151 43.2878 21.2253 42.6758 21.6289C42.0638 22.0326 41.4714 22.3451 40.8984 22.5664C40.3516 22.6055 39.7852 22.625 39.1992 22.625C38.1706 22.625 37.1289 22.5794 36.0742 22.4883C35.0195 22.3971 34.0951 22.293 33.3008 22.1758C33.4049 23.2826 33.7435 24.2461 34.3164 25.0664C34.8893 25.8867 35.8008 26.2969 37.0508 26.2969C37.168 26.2969 37.3568 26.2839 37.6172 26.2578C38.4115 26.1797 39.3359 25.9714 40.3906 25.6328C41.4583 25.2812 42.5195 24.8776 43.5742 24.4219C44.069 24.9167 44.4336 25.4115 44.668 25.9062C44.9023 26.401 45.0651 27.1107 45.1562 28.0352C44.7526 28.5039 44.0951 29.0768 43.1836 29.7539C42.2852 30.431 41.1849 31.043 39.8828 31.5898C38.5807 32.1237 37.2201 32.3906 35.8008 32.3906C33.6654 32.3906 31.8359 31.8763 30.3125 30.8477C28.8021 29.806 27.6562 28.3997 26.875 26.6289C26.1068 24.8451 25.7227 22.8529 25.7227 20.6523ZM38.3008 16.1602C38.1185 15.9648 37.8125 15.8151 37.3828 15.7109C36.9531 15.5938 36.5039 15.5352 36.0352 15.5352C35.6576 15.5352 35.2734 15.5677 34.8828 15.6328C34.5052 15.6979 34.2773 15.7695 34.1992 15.8477C33.7565 16.7201 33.4766 17.7096 33.3594 18.8164L38.5742 18.3086L38.3008 16.1602ZM49.8633 25.2031C49.8633 23.0807 49.8893 21.4792 49.9414 20.3984C49.9935 19.3047 50.1302 17.7031 50.3516 15.5938L48.0859 15.3008C47.8125 14.4544 47.6302 13.6992 47.5391 13.0352C47.4609 12.3711 47.4219 11.5117 47.4219 10.457C47.6302 10.2747 47.9753 10.0599 48.457 9.8125C48.9518 9.55208 49.5378 9.33073 50.2148 9.14844C50.8919 8.95312 51.5755 8.85547 52.2656 8.85547C53.8411 8.85547 54.9544 9.19401 55.6055 9.87109C56.2695 10.5482 56.6016 11.5638 56.6016 12.918C56.6016 13.6732 56.4909 14.6953 56.2695 15.9844C55.9049 18.0547 55.7227 19.1419 55.7227 19.2461C55.7227 19.3112 55.7682 19.3763 55.8594 19.4414C55.9505 19.4935 56.0482 19.5195 56.1523 19.5195C56.2695 19.5195 56.3477 19.474 56.3867 19.3828C56.9076 17.3125 57.4284 15.5807 57.9492 14.1875C58.4701 12.7943 59.2578 11.5573 60.3125 10.4766C61.3672 9.39583 62.7344 8.85547 64.4141 8.85547C66.4974 8.85547 67.9948 9.49349 68.9062 10.7695C69.8177 12.0326 70.2734 13.6276 70.2734 15.5547C70.2734 17.2734 70.0716 18.9336 69.668 20.5352C69.2643 22.1237 68.763 23.7839 68.1641 25.5156C68.1901 25.4505 68.099 25.7044 67.8906 26.2773L67.9297 26.3164L70.7812 25.1445C71.7969 26.0169 72.3893 27.1758 72.5586 28.6211C72.5586 28.7122 72.2656 29.0833 71.6797 29.7344C71.1068 30.3854 70.3451 30.9909 69.3945 31.5508C68.444 32.1107 67.3503 32.3906 66.1133 32.3906C64.8763 32.3906 63.8672 32.0586 63.0859 31.3945C62.3047 30.7305 61.9141 29.5977 61.9141 27.9961C61.9141 26.7201 61.9661 25.0143 62.0703 22.8789C62.1745 20.7435 62.2786 19.0247 62.3828 17.7227C62.0443 17.3581 61.6276 17.1628 61.1328 17.1367C60.6771 17.7227 60.0065 18.8945 59.1211 20.6523C58.2357 22.4102 57.6107 23.7253 57.2461 24.5977C57.2201 24.7799 57.207 24.9557 57.207 25.125C57.207 25.776 57.3047 26.6549 57.5 27.7617C57.6953 28.8555 57.9362 29.8776 58.2227 30.8281C57.9883 31.2708 57.5065 31.6419 56.7773 31.9414C56.0482 32.2409 55.1497 32.3906 54.082 32.3906C53.1185 32.3906 52.3438 32.3125 51.7578 32.1562C51.1849 32 50.7812 31.8372 50.5469 31.668C50.3125 31.4857 50.1953 31.375 50.1953 31.3359C50.1823 31.2188 50.1497 30.9128 50.0977 30.418C50.0456 29.9102 49.9935 29.207 49.9414 28.3086C49.8893 27.3971 49.8633 26.362 49.8633 25.2031ZM74.1406 20.7305C74.1406 18.7513 74.4141 16.8568 74.9609 15.0469C75.5208 13.237 76.3932 11.7526 77.5781 10.5938C78.776 9.4349 80.2799 8.85547 82.0898 8.85547C84.1211 8.85547 86.0612 9.5 87.9102 10.7891L88.2227 10.5938C88.1836 9.07031 87.9948 7.6901 87.6562 6.45312L83.6914 6.19922C83.5091 5.96484 83.3659 5.61979 83.2617 5.16406C83.1576 4.69531 83.1055 4.21354 83.1055 3.71875C83.1055 3.05469 83.1836 2.48177 83.3398 2C84.1211 1.4401 85.1237 1.01693 86.3477 0.730469C87.5716 0.44401 88.7956 0.300781 90.0195 0.300781C91.3737 0.300781 92.3958 0.58724 93.0859 1.16016C93.776 1.72005 94.2383 2.57292 94.4727 3.71875C94.7201 4.85156 94.8438 6.42708 94.8438 8.44531C94.8438 11.1016 94.7331 14.1159 94.5117 17.4883C94.2904 20.8607 94.0039 23.6146 93.6523 25.75L93.5742 26.082L95.8398 25.1055C96.2174 25.5091 96.5495 26.0039 96.8359 26.5898C97.1354 27.1628 97.3242 27.8268 97.4023 28.582C97.2201 28.9727 96.8229 29.474 96.2109 30.0859C95.599 30.6849 94.8503 31.2188 93.9648 31.6875C93.0794 32.1562 92.1549 32.3906 91.1914 32.3906C90.1107 32.3906 89.2773 32.0716 88.6914 31.4336C88.1185 30.7826 87.832 29.9557 87.832 28.9531C87.832 28.6927 87.8971 28.1589 88.0273 27.3516C88.1706 26.5443 88.2878 25.9844 88.3789 25.6719L87.793 25.4961C87.1289 27.8268 86.25 29.5586 85.1562 30.6914C84.0625 31.8242 82.7083 32.3906 81.0938 32.3906C79.362 32.3906 77.9753 31.8177 76.9336 30.6719C75.9049 29.513 75.1823 28.0612 74.7656 26.3164C74.349 24.5716 74.1406 22.7096 74.1406 20.7305ZM87.5391 20.3789C87.6172 19.9102 87.6562 19.3633 87.6562 18.7383C87.6562 18.3346 87.6367 17.9505 87.5977 17.5859C87.5716 17.2214 87.5391 16.9609 87.5 16.8047C86.9792 16.4271 86.3867 16.1602 85.7227 16.0039C85.0716 15.8477 84.4727 15.7695 83.9258 15.7695C83.5872 15.7695 83.2227 15.8021 82.832 15.8672C82.5716 16.1276 82.3633 16.694 82.207 17.5664C82.0508 18.4258 81.9727 19.3958 81.9727 20.4766C81.9727 21.6354 82.0508 22.7617 82.207 23.8555C82.3763 24.9362 82.6107 25.7826 82.9102 26.3945C83.1185 26.3945 83.5221 26.0755 84.1211 25.4375C84.7331 24.7865 85.3646 23.9922 86.0156 23.0547C86.6667 22.1042 87.1745 21.2122 87.5391 20.3789ZM98.7305 20.457C98.7305 18.1003 99.1081 16.056 99.8633 14.3242C100.618 12.5924 101.777 11.2513 103.34 10.3008C104.902 9.33724 106.862 8.85547 109.219 8.85547C111.823 8.85547 113.867 9.34375 115.352 10.3203C116.836 11.2839 117.871 12.625 118.457 14.3438C119.056 16.0625 119.355 18.1654 119.355 20.6523C119.355 22.9049 118.958 24.9167 118.164 26.6875C117.383 28.4453 116.198 29.8385 114.609 30.8672C113.034 31.8828 111.1 32.3906 108.809 32.3906C105.267 32.3906 102.702 31.3034 101.113 29.1289C99.5247 26.9414 98.7305 24.0508 98.7305 20.457ZM109.609 26.668C110.273 26.668 110.677 26.6159 110.82 26.5117C111.12 25.9909 111.348 25.2552 111.504 24.3047C111.66 23.3542 111.738 22.3255 111.738 21.2188C111.738 20.2031 111.673 19.2526 111.543 18.3672C111.413 17.4688 111.23 16.7656 110.996 16.2578C110.853 16.0885 110.566 15.9648 110.137 15.8867C109.707 15.7956 109.238 15.75 108.73 15.75C108.066 15.75 107.611 15.8216 107.363 15.9648C106.712 17.0846 106.387 18.6406 106.387 20.6328C106.387 21.5703 106.458 22.5273 106.602 23.5039C106.745 24.4805 106.927 25.3659 107.148 26.1602C107.305 26.3294 107.624 26.4596 108.105 26.5508C108.587 26.6289 109.089 26.668 109.609 26.668Z" fill="white"/>
</svg>
