<svg width="21" height="21" viewBox="0 0 21 21" fill="none" xmlns="http://www.w3.org/2000/svg">
<path fill-rule="evenodd" clip-rule="evenodd" d="M18.25 10.5C18.25 12.6217 17.4071 14.6566 15.9069 16.1569C14.4066 17.6571 12.3717 18.5 10.25 18.5C8.12827 18.5 6.09344 17.6571 4.59315 16.1569C3.09285 14.6566 2.25 12.6217 2.25 10.5C2.25 8.37827 3.09285 6.34344 4.59315 4.84315C6.09344 3.34285 8.12827 2.5 10.25 2.5C12.3717 2.5 14.4066 3.34285 15.9069 4.84315C17.4071 6.34344 18.25 8.37827 18.25 10.5ZM12.25 7.5C12.25 8.03043 12.0393 8.53914 11.6642 8.91421C11.2891 9.28929 10.7804 9.5 10.25 9.5C9.71957 9.5 9.21086 9.28929 8.83579 8.91421C8.46071 8.53914 8.25 8.03043 8.25 7.5C8.25 6.96957 8.46071 6.46086 8.83579 6.08579C9.21086 5.71071 9.71957 5.5 10.25 5.5C10.7804 5.5 11.2891 5.71071 11.6642 6.08579C12.0393 6.46086 12.25 6.96957 12.25 7.5ZM10.25 11.5C9.2926 11.4998 8.35528 11.7745 7.54942 12.2914C6.74356 12.8083 6.10304 13.5457 5.704 14.416C6.26668 15.0706 6.96427 15.5958 7.74894 15.9555C8.53362 16.3152 9.38681 16.5009 10.25 16.5C11.1132 16.5009 11.9664 16.3152 12.7511 15.9555C13.5357 15.5958 14.2333 15.0706 14.796 14.416C14.397 13.5457 13.7564 12.8083 12.9506 12.2914C12.1447 11.7745 11.2074 11.4998 10.25 11.5Z" fill="#767676"/>
</svg>
