<svg width="120" height="120" viewBox="0 0 120 120" fill="none" xmlns="http://www.w3.org/2000/svg">
<g clip-path="url(#clip0_113_1014)">
<path d="M60 120C44.087 120 28.8258 113.679 17.5736 102.426C6.32141 91.1742 0 75.913 0 60C0 44.087 6.32141 28.8258 17.5736 17.5736C28.8258 6.32141 44.087 0 60 0C75.913 0 91.1742 6.32141 102.426 17.5736C113.679 28.8258 120 44.087 120 60C120 75.913 113.679 91.1742 102.426 102.426C91.1742 113.679 75.913 120 60 120ZM48 90L102 39L93 30L48 72L27 51L18 60L48 90Z" fill="#199F3A"/>
</g>
<defs>
<clipPath id="clip0_113_1014">
<rect width="120" height="120" fill="white"/>
</clipPath>
</defs>
</svg>
